# xmcd
#
# Track frame offsets:
#	225
#	12983
#	23645
#	34360
#	47699
#	58889
#	72854
#	94474
#	106753
#	118727
#	136121
#	149174
#	164010
#	178737
#	189574
#	199986
#
# Disc length: 2805 seconds
#
# Revision: 1
# Processed by: cddbd v1.5.2PL0 Copyright (c) Steve Scherf et al.
# Submitted via: audiograbber 1.83.01
#
DISCID=f40af210
DTITLE=Stare Sedlo - Zlaty ranc
DYEAR=2002
DGENRE=Country
TTITLE0=Drnova chajda
TTITLE1=Vuz do Tennessee
TTITLE2=Colorado
TTITLE3=Cervena reka
TTITLE4=Jesse James
TTITLE5=Zlate strevicky
TTITLE6=Tonka
TTITLE7=Zlaty ranc
TTITLE8=Zuzana
TTITLE9=Pres plane
TTITLE10=Na vanoce rano
TTITLE11=Cerny kozel
TTITLE12=Koureni
TTITLE13=Hraly dudy
TTITLE14=Muzi zenou svy stada
TTITLE15=Tak ja jdu dal (There Is A Time)
EXTD=
EXTT0=
EXTT1=
EXTT2=
EXTT3=
EXTT4=
EXTT5=
EXTT6=
EXTT7=
EXTT8=
EXTT9=
EXTT10=
EXTT11=
EXTT12=
EXTT13=
EXTT14=
EXTT15=
PLAYORDER=
